<?xml version="1.0" encoding="UTF-8"?>
<svg xmlns="http://www.w3.org/2000/svg" version="1.2" baseProfile="tiny-ps" viewBox="0 0 640 640" width="640" height="640">
  <title>Moment Edit</title>
  <rect width="640" height="640" fill="#6B2A24"/>
  <path fill="#F4F0E8" fill-rule="evenodd" d="M106 280 L105 280 L105 283 L109 284 L109 305 L106 305 L106 309 L116 309 L116 305 L113 305 L113 293 L116 297 L116 300 L119 304 L119 307 L123 308 L131 291 L132 291 L132 305 L128 305 L128 309 L140 309 L140 305 L137 305 L137 284 L140 284 L140 280 L131 280 L131 282 L130 282 L130 284 L129 284 L129 286 L128 286 L128 288 L125 292 L124 297 L122 297 L122 295 L120 293 L120 290 L119 290 L115 280 Z M165 280 L159 282 L156 286 L156 289 L155 289 L156 303 L158 304 L159 307 L164 308 L164 309 L177 308 L178 306 L180 306 L180 304 L182 302 L182 299 L183 299 L182 286 L177 281 Z M198 280 L197 280 L197 283 L201 284 L201 305 L198 305 L198 309 L208 309 L208 305 L205 305 L205 293 L208 297 L208 300 L211 304 L211 307 L216 308 L216 305 L217 305 L223 291 L224 291 L224 305 L220 305 L220 309 L232 309 L232 305 L229 305 L229 284 L232 284 L232 280 L223 280 L223 282 L222 282 L222 284 L221 284 L221 286 L220 286 L220 288 L217 292 L216 297 L214 297 L214 295 L212 293 L212 290 L211 290 L207 280 Z M248 280 L247 280 L247 284 L250 284 L250 305 L247 305 L247 309 L269 309 L270 308 L270 300 L267 300 L265 305 L256 305 L256 296 L261 296 L261 299 L265 299 L265 289 L262 289 L261 292 L256 292 L256 284 L264 284 L265 285 L265 289 Z M286 280 L285 280 L285 284 L288 284 L288 305 L285 305 L285 309 L295 309 L295 305 L292 305 L292 288 L295 291 L295 293 L297 294 L297 296 L300 298 L300 300 L302 301 L304 306 L307 309 L310 309 L310 284 L313 284 L314 280 L303 280 L303 284 L306 284 L306 296 L302 292 L302 290 L300 289 L300 287 L298 286 L298 284 L296 283 L295 280 Z M328 280 L327 280 L327 289 L330 289 L331 284 L337 284 L337 305 L333 305 L333 309 L346 309 L346 305 L342 305 L342 284 L348 284 L349 289 L352 289 L352 280 Z M390 280 L389 280 L389 283 L393 284 L393 305 L390 305 L390 309 L412 309 L413 300 L409 300 L408 305 L398 305 L398 297 L399 296 L404 296 L404 299 L407 299 L407 289 L404 289 L404 292 L398 292 L398 285 L399 284 L407 284 L408 289 L411 289 L411 280 Z M429 280 L428 280 L428 284 L431 284 L431 305 L428 305 L428 309 L445 309 L445 308 L451 307 L454 304 L455 298 L456 298 L456 291 L455 291 L454 285 L449 281 Z M472 280 L471 280 L471 284 L474 284 L474 305 L471 305 L471 309 L483 309 L483 306 L480 305 L480 284 L483 283 L483 280 Z M498 280 L497 280 L497 289 L500 289 L501 284 L506 284 L506 305 L503 305 L502 309 L516 309 L516 305 L512 305 L512 284 L518 284 L518 288 L522 288 L522 280 Z M166 284 L172 284 L176 288 L177 297 L176 297 L175 303 L172 304 L172 305 L164 304 L163 301 L162 301 L162 298 L161 298 L162 288 Z M437 284 L442 284 L442 285 L446 286 L449 290 L450 296 L449 296 L449 300 L446 304 L437 305 Z M294 330 L293 330 L293 333 L348 333 L348 330 Z M182 350 L181 350 L181 361 L185 361 L184 357 L187 357 L189 355 L189 352 L188 352 L188 350 Z M194 350 L193 350 L193 361 L197 361 L197 359 L199 361 L202 361 L201 350 Z M208 350 L207 350 L207 361 L211 361 L211 357 L210 357 L211 350 Z M217 350 L216 350 L216 354 L217 354 L219 360 L222 360 L225 353 L226 353 L226 350 L222 350 L222 353 L220 353 L220 350 Z M232 350 L231 350 L230 356 L228 358 L228 361 L232 361 L232 358 L234 358 L234 361 L238 361 L238 356 L236 354 L236 351 Z M242 350 L241 350 L241 353 L244 353 L244 361 L248 361 L247 353 L251 353 L251 350 Z M256 350 L255 350 L255 361 L263 361 L263 357 L261 357 L261 354 L259 354 L259 350 Z M261 350 L260 350 L260 353 L263 353 L263 350 Z M276 350 L275 350 L275 353 L277 355 L278 360 L281 360 L282 358 L283 358 L283 360 L287 359 L289 350 L286 350 L285 353 L284 353 L284 351 L281 351 L281 353 L280 353 L279 350 Z M295 350 L294 350 L293 361 L301 361 L302 360 L302 357 L300 357 L301 350 L298 350 L298 353 L297 353 L297 350 Z M308 350 L307 350 L306 361 L315 360 L316 357 L317 357 L316 351 L311 350 L311 353 L313 354 L313 357 L310 358 L310 350 Z M322 350 L321 350 L321 361 L330 360 L331 359 L331 352 L329 350 Z M337 350 L336 350 L336 361 L340 361 L339 350 Z M346 350 L345 350 L345 361 L348 361 L348 357 L350 358 L350 360 L354 360 L354 350 L351 350 L351 352 L349 350 Z M361 350 L359 351 L359 359 L361 361 L368 361 L369 360 L369 355 L365 355 L365 358 L363 358 L362 354 L364 353 L364 350 Z M366 350 L365 350 L365 353 L368 353 L368 350 Z M383 350 L382 350 L382 356 L384 356 L384 357 L382 357 L382 361 L388 361 L389 360 L389 354 L387 354 L387 353 L389 353 L389 350 L386 350 L386 353 L385 353 L385 350 Z M394 350 L393 350 L393 353 L396 353 L396 361 L400 361 L400 353 L403 353 L403 350 Z M408 350 L407 350 L407 359 L409 361 L415 361 L416 356 L413 356 L413 358 L411 358 L411 350 Z M414 350 L413 350 L413 353 L417 353 L417 350 Z M423 350 L422 350 L422 361 L431 360 L432 352 L430 350 Z M438 350 L437 350 L436 361 L440 361 L440 350 Z M447 350 L445 351 L445 359 L449 360 L448 354 L450 353 L450 350 Z M452 350 L451 350 L452 357 L450 358 L450 361 L453 361 L456 357 L455 351 Z M325 353 L327 353 L327 355 L328 355 L326 358 L325 358 Z M425 353 L428 353 L427 358 L425 358 Z M258 357 L260 357 L260 358 L258 358 Z M297 357 L299 357 L299 358 L297 358 Z"/>
</svg>
