<?xml version="1.0" encoding="UTF-8"?>
<svg xmlns="http://www.w3.org/2000/svg" version="1.2" baseProfile="tiny-ps" viewBox="0 0 640 640" width="640" height="640">
  <title>Moment Edit</title>
  <rect x="-2" y="-2" width="644" height="644" fill="#6B2A24"/>
  <path fill="#F4F0E8" d="M68 311.1 68.6 281.9 70.1 282 69.5 311.1Q69.5 314.3 70.7 315.8Q71.9 317.3 74.6 317.3Q74.8 317.3 74.8 317.6Q74.8 318 74.6 318Q73.3 318 71.9 317.9Q70.5 317.9 68.8 317.9Q67.1 317.9 65.7 317.9Q64.3 318 63 318Q62.9 318 62.9 317.6Q62.9 317.3 63 317.3Q65.5 317.3 66.7 315.8Q68 314.3 68 311.1ZM110 317.3Q110.2 317.3 110.2 317.6Q110.2 318 110 318Q108.5 318 106.7 317.9Q104.8 317.9 102.7 317.9Q100.7 317.9 99 317.9Q97.3 318 95.9 318Q95.7 318 95.7 317.6Q95.7 317.3 95.9 317.3Q98.8 317.3 99.6 316.5Q100.5 315.7 100.3 313.1L99.1 284.9L101.5 281.5L85.9 317.6Q85.9 317.8 85.5 317.8Q85.1 317.8 84.9 317.6L69.3 285.5Q67.2 281.2 63.4 281.2Q63.3 281.2 63.3 280.9Q63.3 280.5 63.4 280.5Q64.5 280.5 65.7 280.6Q66.9 280.6 67.7 280.6Q68.8 280.6 69.8 280.6Q70.7 280.5 71.2 280.5Q72 280.5 72.5 281.1Q72.9 281.6 73.9 283.6L87.5 311.3L85.3 315.1L99.8 282Q100.1 281.3 100.5 280.9Q101 280.5 101.6 280.5Q102 280.5 102.6 280.6Q103.3 280.6 104.1 280.6Q105.8 280.6 106.9 280.6Q108.1 280.5 109.3 280.5Q109.4 280.5 109.4 280.9Q109.4 281.2 109.3 281.2Q106.4 281.2 105.1 282.1Q103.7 283.1 103.8 285.5L105.1 313.1Q105.2 314.9 105.5 315.8Q105.9 316.7 106.9 317Q108 317.3 110 317.3Z M144.4 318.7Q140.1 318.7 136.6 317.2Q133.1 315.7 130.6 313Q128.1 310.3 126.7 306.8Q125.4 303.2 125.4 299.3Q125.4 294.4 127.3 290.8Q129.2 287.1 132.3 284.7Q135.4 282.2 139.1 281Q142.8 279.8 146.5 279.8Q150.9 279.8 154.4 281.4Q158 283 160.4 285.7Q162.9 288.4 164.2 291.8Q165.5 295.3 165.5 298.9Q165.5 303.1 163.8 306.7Q162.1 310.3 159.2 313Q156.3 315.7 152.5 317.2Q148.7 318.7 144.4 318.7ZM146.5 317.4Q150.3 317.4 153.4 315.4Q156.4 313.5 158.2 309.7Q160 306 160 300.6Q160 294.9 158.1 290.6Q156.1 286.3 152.5 283.8Q148.9 281.3 144 281.3Q137.7 281.3 134.3 285.5Q130.8 289.8 130.8 297.2Q130.8 301.4 131.9 305.1Q133.1 308.8 135.2 311.6Q137.3 314.3 140.1 315.9Q143 317.4 146.5 317.4Z M186.5 311.1 187.1 281.9 188.6 282 188 311.1Q188 314.3 189.1 315.8Q190.3 317.3 193.1 317.3Q193.2 317.3 193.2 317.6Q193.2 318 193.1 318Q191.8 318 190.4 317.9Q189 317.9 187.3 317.9Q185.6 317.9 184.2 317.9Q182.8 318 181.5 318Q181.4 318 181.4 317.6Q181.4 317.3 181.5 317.3Q184 317.3 185.2 315.8Q186.4 314.3 186.5 311.1ZM228.5 317.3Q228.7 317.3 228.7 317.6Q228.7 318 228.5 318Q227 318 225.2 317.9Q223.3 317.9 221.2 317.9Q219.2 317.9 217.5 317.9Q215.8 318 214.4 318Q214.2 318 214.2 317.6Q214.2 317.3 214.4 317.3Q217.3 317.3 218.1 316.5Q219 315.7 218.8 313.1L217.6 284.9L219.9 281.5L204.4 317.6Q204.4 317.8 203.9 317.8Q203.5 317.8 203.4 317.6L187.8 285.5Q185.7 281.2 181.9 281.2Q181.8 281.2 181.8 280.9Q181.8 280.5 181.9 280.5Q183 280.5 184.2 280.6Q185.4 280.6 186.1 280.6Q187.3 280.6 188.2 280.6Q189.2 280.5 189.7 280.5Q190.5 280.5 191 281.1Q191.4 281.6 192.4 283.6L206 311.3L203.8 315.1L218.2 282Q218.6 281.3 219 280.9Q219.5 280.5 220 280.5Q220.5 280.5 221.1 280.6Q221.7 280.6 222.6 280.6Q224.3 280.6 225.4 280.6Q226.6 280.5 227.7 280.5Q227.9 280.5 227.9 280.9Q227.9 281.2 227.7 281.2Q224.9 281.2 223.5 282.1Q222.2 283.1 222.3 285.5L223.6 313.1Q223.7 314.9 224 315.8Q224.4 316.7 225.4 317Q226.4 317.3 228.5 317.3Z M269 318H243.5Q243.3 318 243.3 317.6Q243.3 317.3 243.5 317.3Q245.6 317.3 246.6 317Q247.6 316.7 248 315.8Q248.3 314.9 248.3 313.1V285.4Q248.3 283.6 248 282.8Q247.6 281.9 246.6 281.6Q245.6 281.2 243.5 281.2Q243.3 281.2 243.3 280.9Q243.3 280.5 243.5 280.5H268Q268.6 280.5 268.6 281L268.7 288.6Q268.7 288.8 268.4 288.8Q268 288.8 268 288.7Q267.6 285.3 265.6 283.6Q263.7 281.9 260.6 281.9H257.5Q255.7 281.9 254.8 282.2Q253.8 282.5 253.4 283.3Q253.1 284.1 253.1 285.6V312.9Q253.1 314.3 253.4 315.1Q253.8 316 254.6 316.3Q255.5 316.6 257.2 316.6H261.1Q264.5 316.6 266.8 314.6Q269 312.6 269.8 308.9Q269.8 308.7 270.2 308.8Q270.5 308.8 270.5 309Q270.3 310.6 270.1 312.9Q270 315.2 270 317.1Q270 318 269 318ZM265.7 304.2Q265.7 301.6 264.2 300.4Q262.7 299.2 259.5 299.2H250.8V297.8H259.7Q262.8 297.8 264.2 296.7Q265.6 295.7 265.6 293.5Q265.6 293.3 266 293.3Q266.3 293.3 266.3 293.5Q266.3 295.3 266.3 296.3Q266.2 297.4 266.2 298.5Q266.2 299.9 266.3 301.3Q266.4 302.6 266.4 304.2Q266.4 304.3 266 304.3Q265.7 304.3 265.7 304.2Z M291.8 311.1V281.9L293.3 282V311.1Q293.3 314.3 294.4 315.8Q295.6 317.3 298 317.3Q298.2 317.3 298.2 317.6Q298.2 318 298 318Q296.8 318 295.5 317.9Q294.2 317.9 292.6 317.9Q291 317.9 289.5 317.9Q288 318 286.7 318Q286.6 318 286.6 317.6Q286.6 317.3 286.7 317.3Q289.4 317.3 290.6 315.8Q291.8 314.3 291.8 311.1ZM322.1 318.8Q322.1 318.9 321.8 318.9Q321.5 319 321.4 318.9L293.2 285.4Q291.1 283 289.6 282.1Q288 281.2 286.5 281.2Q286.4 281.2 286.4 280.9Q286.4 280.5 286.5 280.5Q287.6 280.5 288.8 280.6Q290 280.6 290.9 280.6Q292.3 280.6 293.5 280.6Q294.7 280.5 295.4 280.5Q296.1 280.5 296.5 281.2Q296.8 281.9 298.2 283.6L321.6 311.8ZM322.1 287.4V318.8L320.6 316.9V287.4Q320.6 284.3 319.5 282.8Q318.4 281.2 315.9 281.2Q315.8 281.2 315.8 280.9Q315.8 280.5 315.9 280.5Q317.2 280.5 318.5 280.6Q319.8 280.7 321.4 280.7Q322.9 280.7 324.3 280.6Q325.8 280.5 327 280.5Q327.2 280.5 327.2 280.9Q327.2 281.2 327 281.2Q324.5 281.2 323.3 282.8Q322.1 284.3 322.1 287.4Z M351.2 281.7Q347.4 281.7 345.4 283.8Q343.3 285.8 342.2 290.4Q342.2 290.5 341.9 290.5Q341.5 290.5 341.5 290.4Q341.7 289.6 341.8 288.1Q341.9 286.7 342.1 285Q342.2 283.3 342.3 281.8Q342.4 280.2 342.4 279.2Q342.4 278.9 342.7 278.9Q343.1 278.9 343.1 279.2Q343.1 279.8 343.7 280Q344.3 280.3 345 280.4Q345.8 280.5 346.4 280.5Q351.5 280.7 358.4 280.7Q362.6 280.7 365.1 280.6Q367.7 280.5 370 280.5Q372.1 280.5 373.2 280.2Q374.3 280 374.6 279Q374.6 278.8 374.9 278.8Q375.3 278.8 375.3 279Q375.2 279.9 375.1 281.5Q375 283.1 374.9 284.9Q374.8 286.6 374.8 288.1Q374.7 289.6 374.7 290.4Q374.7 290.5 374.4 290.5Q374 290.5 374 290.4Q373.6 285.7 371.6 283.7Q369.6 281.7 365.8 281.7Q363.7 281.7 362.6 281.9Q361.6 282.2 361.2 283Q360.9 283.8 360.9 285.5V313.1Q360.9 314.9 361.3 315.8Q361.7 316.7 362.8 317Q364 317.3 366.4 317.3Q366.6 317.3 366.6 317.6Q366.6 318 366.4 318Q364.8 318 362.8 317.9Q360.8 317.9 358.4 317.9Q356.1 317.9 354.1 317.9Q352.1 318 350.4 318Q350.3 318 350.3 317.6Q350.3 317.3 350.4 317.3Q352.8 317.3 354 317Q355.2 316.7 355.6 315.8Q356.1 314.9 356.1 313.1V285.4Q356.1 283.7 355.7 282.9Q355.4 282.1 354.3 281.9Q353.2 281.7 351.2 281.7Z M441.6 318H416Q415.9 318 415.9 317.6Q415.9 317.3 416 317.3Q418.1 317.3 419.2 317Q420.2 316.7 420.6 315.8Q420.9 314.9 420.9 313.1V285.4Q420.9 283.6 420.6 282.8Q420.2 281.9 419.2 281.6Q418.1 281.2 416 281.2Q415.9 281.2 415.9 280.9Q415.9 280.5 416 280.5H440.6Q441.1 280.5 441.1 281L441.3 288.6Q441.3 288.8 440.9 288.8Q440.6 288.8 440.6 288.7Q440.1 285.3 438.2 283.6Q436.3 281.9 433.2 281.9H430.1Q428.3 281.9 427.4 282.2Q426.4 282.5 426 283.3Q425.6 284.1 425.6 285.6V312.9Q425.6 314.3 426 315.1Q426.3 316 427.2 316.3Q428.1 316.6 429.8 316.6H433.7Q437.1 316.6 439.3 314.6Q441.6 312.6 442.4 308.9Q442.4 308.7 442.8 308.8Q443.1 308.8 443.1 309Q442.9 310.6 442.7 312.9Q442.5 315.2 442.5 317.1Q442.5 318 441.6 318ZM438.3 304.2Q438.3 301.6 436.8 300.4Q435.3 299.2 432.1 299.2H423.4V297.8H432.2Q435.4 297.8 436.8 296.7Q438.2 295.7 438.2 293.5Q438.2 293.3 438.5 293.3Q438.9 293.3 438.9 293.5Q438.9 295.3 438.9 296.3Q438.8 297.4 438.8 298.5Q438.8 299.9 438.9 301.3Q439 302.6 439 304.2Q439 304.3 438.6 304.3Q438.3 304.3 438.3 304.2Z M475.6 318.2Q473.8 318.2 471.2 318.1Q468.5 317.9 466.3 317.9Q464.3 317.9 462.4 317.9Q460.5 318 459 318Q458.9 318 458.9 317.6Q458.9 317.3 459 317.3Q461.1 317.3 462.2 317Q463.2 316.7 463.6 315.8Q463.9 314.9 463.9 313.1V285.4Q463.9 283.6 463.6 282.8Q463.2 281.9 462.2 281.6Q461.2 281.2 459.1 281.2Q458.9 281.2 458.9 280.9Q458.9 280.5 459.1 280.5Q460.6 280.5 462.4 280.6Q464.3 280.7 466.3 280.7Q468.3 280.7 470.7 280.5Q473.1 280.4 474.8 280.4Q481.1 280.4 485.8 282.8Q490.6 285.2 493.2 289.3Q495.8 293.5 495.8 298.6Q495.8 303.1 494.2 306.8Q492.6 310.4 489.8 312.9Q487 315.5 483.3 316.9Q479.7 318.2 475.6 318.2ZM475 317.2Q479.5 317.2 482.9 315.2Q486.4 313.2 488.4 309.4Q490.3 305.5 490.3 299.9Q490.3 294.7 488.5 290.6Q486.7 286.4 483.3 283.9Q480 281.4 475.3 281.4Q471.8 281.4 470.2 282.1Q468.7 282.8 468.7 285.5V312.5Q468.7 314.9 469.9 316Q471.1 317.2 475 317.2Z M522.2 313.1Q522.2 314.9 522.6 315.8Q522.9 316.7 523.9 317Q525 317.3 527.1 317.3Q527.2 317.3 527.2 317.6Q527.2 318 527.1 318Q525.6 318 523.8 317.9Q522 317.9 519.8 317.9Q517.7 317.9 515.8 317.9Q514 318 512.5 318Q512.3 318 512.3 317.6Q512.3 317.3 512.5 317.3Q514.6 317.3 515.6 317Q516.7 316.7 517.1 315.8Q517.4 314.9 517.4 313.1V285.4Q517.4 283.6 517.1 282.8Q516.7 281.9 515.6 281.6Q514.6 281.2 512.5 281.2Q512.3 281.2 512.3 280.9Q512.3 280.5 512.5 280.5Q514 280.5 515.8 280.6Q517.7 280.7 519.8 280.7Q522 280.7 523.8 280.6Q525.7 280.5 527.1 280.5Q527.2 280.5 527.2 280.9Q527.2 281.2 527.1 281.2Q525 281.2 524 281.6Q522.9 281.9 522.6 282.8Q522.2 283.7 522.2 285.5Z M552.8 281.7Q549.1 281.7 547 283.8Q544.9 285.8 543.9 290.4Q543.8 290.5 543.5 290.5Q543.2 290.5 543.2 290.4Q543.3 289.6 543.4 288.1Q543.6 286.7 543.7 285Q543.8 283.3 543.9 281.8Q544 280.2 544 279.2Q544 278.9 544.4 278.9Q544.7 278.9 544.7 279.2Q544.7 279.8 545.3 280Q545.9 280.3 546.7 280.4Q547.5 280.5 548 280.5Q553.2 280.7 560.1 280.7Q564.3 280.7 566.8 280.6Q569.3 280.5 571.6 280.5Q573.7 280.5 574.8 280.2Q575.9 280 576.2 279Q576.3 278.8 576.6 278.8Q576.9 278.8 576.9 279Q576.8 279.9 576.7 281.5Q576.6 283.1 576.5 284.9Q576.5 286.6 576.4 288.1Q576.3 289.6 576.3 290.4Q576.3 290.5 576 290.5Q575.7 290.5 575.6 290.4Q575.2 285.7 573.3 283.7Q571.3 281.7 567.4 281.7Q565.3 281.7 564.3 281.9Q563.2 282.2 562.9 283Q562.5 283.8 562.5 285.5V313.1Q562.5 314.9 562.9 315.8Q563.3 316.7 564.5 317Q565.7 317.3 568.1 317.3Q568.2 317.3 568.2 317.6Q568.2 318 568.1 318Q566.5 318 564.5 317.9Q562.4 317.9 560.1 317.9Q557.8 317.9 555.8 317.9Q553.7 318 552.1 318Q551.9 318 551.9 317.6Q551.9 317.3 552.1 317.3Q554.4 317.3 555.7 317Q556.9 316.7 557.3 315.8Q557.7 314.9 557.7 313.1V285.4Q557.7 283.7 557.4 282.9Q557 282.1 555.9 281.9Q554.9 281.7 552.8 281.7Z"/>
  <rect x="301.0" y="344" width="38" height="2" fill="#F4F0E8"/>
  <path fill="#F4F0E8" d="M161.6 376.6Q161.6 377.1 161.8 377.3Q161.9 377.6 162.3 377.7Q162.7 377.8 163.5 377.8Q163.6 377.8 163.6 377.9Q163.6 378 163.5 378Q163 378 162.3 378Q161.7 378 161 378Q160.4 378 159.9 378Q159.3 378 158.9 378Q158.9 378 158.9 377.9Q158.9 377.8 158.9 377.8Q159.5 377.8 159.8 377.7Q160.1 377.6 160.2 377.4Q160.3 377.1 160.3 376.6V368.8Q160.3 368.3 160.2 368Q160.1 367.8 159.8 367.7Q159.5 367.6 158.9 367.6Q158.9 367.6 158.9 367.5Q158.9 367.4 158.9 367.4Q159.3 367.4 159.8 367.4Q160.4 367.4 160.9 367.4Q161.4 367.4 162 367.4Q162.7 367.3 163.3 367.3Q164.3 367.3 165.1 367.6Q165.9 367.9 166.3 368.5Q166.8 369.1 166.8 370.1Q166.8 371 166.5 371.6Q166.2 372.3 165.6 372.7Q165.1 373.1 164.4 373.3Q163.7 373.5 163.1 373.5Q162.9 373.5 162.7 373.5Q162.5 373.5 162.3 373.5Q162.2 373.4 162.2 373.3Q162.3 373.2 162.3 373.2Q162.5 373.3 162.6 373.3Q162.8 373.3 162.9 373.3Q163.5 373.3 164.1 373Q164.6 372.7 165 372.1Q165.3 371.4 165.3 370.5Q165.3 369.6 165 368.9Q164.7 368.3 164.1 368Q163.6 367.6 162.8 367.6Q162.4 367.6 162.1 367.7Q161.8 367.8 161.7 368Q161.6 368.3 161.6 368.8Z M181.8 378Q181.5 378 180.9 377.3Q180.3 376.7 179.4 375.5Q178.5 374.3 177.5 372.6L178.6 372.2Q180 374.3 181 375.5Q182 376.7 182.8 377.3Q183.5 377.8 184.3 377.8Q184.3 377.8 184.3 377.9Q184.3 378 184.3 378Q183.3 378 182.7 378Q182.1 378 181.8 378ZM177.7 367.3Q179.1 367.3 179.9 367.9Q180.7 368.5 180.7 369.5Q180.7 370.5 180.1 371.2Q179.6 372 178.7 372.4Q177.8 372.8 176.8 372.8Q176.6 372.8 176.4 372.8Q176.2 372.8 176 372.8V376.6Q176 377.1 176.1 377.4Q176.2 377.6 176.5 377.7Q176.8 377.8 177.4 377.8Q177.4 377.8 177.4 377.9Q177.4 378 177.4 378Q176.9 378 176.4 378Q175.9 378 175.3 378Q174.7 378 174.2 378Q173.7 378 173.2 378Q173.2 378 173.2 377.9Q173.2 377.8 173.2 377.8Q173.8 377.8 174.1 377.7Q174.4 377.6 174.5 377.4Q174.6 377.1 174.6 376.6V368.8Q174.6 368.3 174.5 368Q174.4 367.8 174.2 367.7Q173.9 367.6 173.3 367.6Q173.2 367.6 173.2 367.5Q173.2 367.4 173.3 367.4Q173.7 367.4 174.2 367.4Q174.7 367.4 175.3 367.4Q175.8 367.4 176.5 367.4Q177.2 367.3 177.7 367.3ZM179.3 370.1Q179.3 369.1 179 368.6Q178.8 368.1 178.3 367.8Q177.8 367.6 177.2 367.6Q176.5 367.6 176.3 367.8Q176 368.1 176 368.8V372.4Q176.2 372.4 176.5 372.4Q176.8 372.4 177 372.4Q178.2 372.4 178.8 371.8Q179.3 371.3 179.3 370.1Z M192.6 376.6Q192.6 377.1 192.7 377.4Q192.8 377.6 193.1 377.7Q193.4 377.8 194 377.8Q194 377.8 194 377.9Q194 378 194 378Q193.6 378 193.1 378Q192.5 378 191.9 378Q191.3 378 190.8 378Q190.3 378 189.9 378Q189.8 378 189.8 377.9Q189.8 377.8 189.9 377.8Q190.5 377.8 190.8 377.7Q191.1 377.6 191.2 377.4Q191.3 377.1 191.3 376.6V368.8Q191.3 368.3 191.2 368Q191.1 367.8 190.8 367.7Q190.5 367.6 189.9 367.6Q189.8 367.6 189.8 367.5Q189.8 367.4 189.9 367.4Q190.3 367.4 190.8 367.4Q191.3 367.4 191.9 367.4Q192.5 367.4 193.1 367.4Q193.6 367.4 194 367.4Q194 367.4 194 367.5Q194 367.6 194 367.6Q193.4 367.6 193.1 367.7Q192.8 367.8 192.7 368Q192.6 368.3 192.6 368.8Z M211.1 367.4Q211.2 367.4 211.2 367.5Q211.2 367.6 211.1 367.6Q210.6 367.6 210.1 367.9Q209.6 368.3 209.3 369.1L205.8 378Q205.8 378.1 205.7 378.1Q205.5 378.1 205.5 378L201.2 368.8Q200.9 368.2 200.6 367.9Q200.3 367.6 199.8 367.6Q199.8 367.6 199.8 367.5Q199.8 367.4 199.8 367.4Q200 367.4 200.2 367.4Q200.4 367.4 200.6 367.4Q200.8 367.4 201.2 367.4Q201.8 367.4 202.3 367.4Q202.7 367.4 203 367.4Q203.4 367.4 203.6 367.4Q203.7 367.4 203.7 367.5Q203.7 367.6 203.6 367.6Q202.9 367.6 202.7 367.9Q202.4 368.2 202.7 368.8L206.2 376.4L205.6 377.4L208.9 369Q209.2 368.3 208.9 368Q208.6 367.6 207.7 367.6Q207.7 367.6 207.7 367.5Q207.7 367.4 207.7 367.4Q208.2 367.4 208.6 367.4Q209 367.4 209.6 367.4Q210.1 367.4 210.4 367.4Q210.7 367.4 211.1 367.4Z M219.3 373.6 219.5 373.2H224.1L224.2 373.6ZM228 377.8Q228.1 377.8 228.1 377.9Q228.1 378 228 378Q227.6 378 227 378Q226.5 377.9 226 377.9Q225.5 377.9 225.1 378Q224.7 378 224.2 378Q224.1 378 224.1 377.9Q224.1 377.8 224.2 377.8Q225 377.8 225.2 377.5Q225.4 377.3 225 376.5L221.4 368.9L221.9 368.1L218.6 375.8Q218.1 376.8 218.5 377.3Q218.9 377.8 220 377.8Q220.1 377.8 220.1 377.9Q220.1 378 220 378Q219.5 378 219.1 378Q218.6 377.9 218 377.9Q217.4 377.9 217 378Q216.6 378 216.1 378Q216 378 216 377.9Q216 377.8 216.1 377.8Q216.5 377.8 216.9 377.6Q217.2 377.4 217.5 377Q217.8 376.5 218.2 375.6L221.8 367.3Q221.8 367.2 221.9 367.2Q222 367.2 222.1 367.3L226.1 375.7Q226.5 376.5 226.8 377Q227.1 377.4 227.4 377.6Q227.7 377.8 228 377.8Z M236.5 367.7Q235.4 367.7 234.8 368.3Q234.2 368.9 233.9 370.2Q233.9 370.2 233.8 370.2Q233.7 370.2 233.7 370.2Q233.8 369.9 233.8 369.5Q233.8 369.1 233.9 368.7Q233.9 368.2 233.9 367.7Q234 367.3 234 367Q234 366.9 234.1 366.9Q234.2 366.9 234.2 367Q234.2 367.2 234.3 367.2Q234.5 367.3 234.7 367.3Q234.9 367.4 235.1 367.4Q236.6 367.4 238.5 367.4Q239.7 367.4 240.4 367.4Q241.1 367.4 241.8 367.4Q242.4 367.4 242.7 367.3Q243 367.2 243.1 366.9Q243.1 366.9 243.2 366.9Q243.3 366.9 243.3 366.9Q243.3 367.2 243.2 367.7Q243.2 368.1 243.2 368.6Q243.2 369.1 243.1 369.5Q243.1 370 243.1 370.2Q243.1 370.2 243 370.2Q242.9 370.2 242.9 370.2Q242.8 368.8 242.3 368.3Q241.7 367.7 240.6 367.7Q240 367.7 239.7 367.8Q239.4 367.9 239.3 368.1Q239.2 368.3 239.2 368.8V376.6Q239.2 377.1 239.3 377.4Q239.4 377.6 239.8 377.7Q240.1 377.8 240.8 377.8Q240.8 377.8 240.8 377.9Q240.8 378 240.8 378Q240.3 378 239.8 378Q239.2 378 238.5 378Q237.9 378 237.3 378Q236.7 378 236.3 378Q236.2 378 236.2 377.9Q236.2 377.8 236.3 377.8Q236.9 377.8 237.3 377.7Q237.6 377.6 237.7 377.4Q237.8 377.1 237.8 376.6V368.8Q237.8 368.3 237.7 368.1Q237.6 367.8 237.3 367.8Q237 367.7 236.5 367.7Z M256.9 378H249.6Q249.6 378 249.6 377.9Q249.6 377.8 249.6 377.8Q250.2 377.8 250.5 377.7Q250.8 377.6 250.9 377.4Q251 377.1 251 376.6V368.8Q251 368.3 250.9 368Q250.8 367.8 250.5 367.7Q250.2 367.6 249.6 367.6Q249.6 367.6 249.6 367.5Q249.6 367.4 249.6 367.4H256.6Q256.7 367.4 256.7 367.5L256.8 369.7Q256.8 369.7 256.7 369.7Q256.6 369.7 256.6 369.7Q256.5 368.7 255.9 368.3Q255.4 367.8 254.5 367.8H253.6Q253.1 367.8 252.8 367.9Q252.6 368 252.5 368.2Q252.4 368.4 252.4 368.8V376.6Q252.4 377 252.4 377.2Q252.5 377.4 252.8 377.5Q253 377.6 253.5 377.6H254.6Q255.6 377.6 256.2 377Q256.9 376.5 257.1 375.4Q257.1 375.4 257.2 375.4Q257.3 375.4 257.3 375.4Q257.2 375.9 257.2 376.6Q257.1 377.2 257.1 377.7Q257.1 378 256.9 378ZM255.9 374.1Q255.9 373.4 255.5 373Q255.1 372.7 254.2 372.7H251.7V372.3H254.2Q255.1 372.3 255.5 372Q255.9 371.7 255.9 371Q255.9 371 256 371Q256.1 371 256.1 371Q256.1 371.6 256.1 371.9Q256.1 372.2 256.1 372.5Q256.1 372.9 256.1 373.3Q256.1 373.6 256.1 374.1Q256.1 374.1 256 374.1Q255.9 374.1 255.9 374.1Z M280.3 372.4 278.1 378Q278.1 378.1 278 378.1Q277.8 378.1 277.8 378L273.5 368.8Q273.3 368.3 273.1 368.1Q272.9 367.8 272.7 367.7Q272.5 367.6 272.1 367.6Q272.1 367.6 272.1 367.5Q272.1 367.4 272.1 367.4Q272.3 367.4 272.5 367.4Q272.7 367.4 272.9 367.4Q273.2 367.4 273.5 367.4Q274 367.4 274.4 367.4Q274.8 367.4 275.1 367.4Q275.4 367.4 275.6 367.4Q275.7 367.4 275.7 367.5Q275.7 367.6 275.6 367.6Q275 367.6 274.8 367.8Q274.6 368.1 274.9 368.8L278.5 376.5L277.9 377.5L280 372ZM287.9 367.4Q287.9 367.4 287.9 367.5Q287.9 367.6 287.9 367.6Q287.3 367.6 286.9 367.9Q286.4 368.3 286.1 369.1L282.6 378Q282.6 378.1 282.4 378.1Q282.2 378.1 282.2 378L277.9 368.8Q277.7 368.2 277.4 367.9Q277.1 367.6 276.6 367.6Q276.6 367.6 276.6 367.5Q276.6 367.4 276.6 367.4Q276.9 367.4 277 367.4Q277.2 367.4 277.4 367.4Q277.6 367.4 277.9 367.4Q278.6 367.4 278.9 367.4Q279.3 367.4 279.6 367.4Q279.6 367.4 279.6 367.5Q279.6 367.6 279.6 367.6Q279.1 367.6 279 367.8Q279 368 279.4 368.8L283 376.5L282.3 377.5L285.6 369.1Q285.9 368.4 285.6 368Q285.4 367.6 284.6 367.6Q284.5 367.6 284.5 367.5Q284.5 367.4 284.6 367.4Q285 367.4 285.4 367.4Q285.8 367.4 286.4 367.4Q286.9 367.4 287.2 367.4Q287.5 367.4 287.9 367.4ZM280.1 372 281.3 369Q281.6 368.3 281.5 367.9Q281.4 367.6 280.9 367.6Q280.9 367.6 280.9 367.5Q280.9 367.4 280.9 367.4Q281.1 367.4 281.2 367.4Q281.3 367.4 281.5 367.4Q281.7 367.4 282 367.4Q282.5 367.4 282.8 367.4Q283 367.4 283.4 367.4Q283.5 367.4 283.5 367.5Q283.5 367.6 283.4 367.6Q282.9 367.6 282.5 367.9Q282 368.3 281.7 369.1L280.4 372.4Z M300.8 378H293.5Q293.5 378 293.5 377.9Q293.5 377.8 293.5 377.8Q294.1 377.8 294.4 377.7Q294.7 377.6 294.8 377.4Q294.9 377.1 294.9 376.6V368.8Q294.9 368.3 294.8 368Q294.7 367.8 294.4 367.7Q294.1 367.6 293.5 367.6Q293.5 367.6 293.5 367.5Q293.5 367.4 293.5 367.4H300.5Q300.7 367.4 300.7 367.5L300.7 369.7Q300.7 369.7 300.6 369.7Q300.5 369.7 300.5 369.7Q300.4 368.7 299.8 368.3Q299.3 367.8 298.4 367.8H297.5Q297 367.8 296.8 367.9Q296.5 368 296.4 368.2Q296.3 368.4 296.3 368.8V376.6Q296.3 377 296.4 377.2Q296.5 377.4 296.7 377.5Q297 377.6 297.4 377.6H298.5Q299.5 377.6 300.1 377Q300.8 376.5 301 375.4Q301 375.4 301.1 375.4Q301.2 375.4 301.2 375.4Q301.1 375.9 301.1 376.6Q301.1 377.2 301.1 377.7Q301.1 378 300.8 378ZM299.8 374.1Q299.8 373.4 299.4 373Q299 372.7 298.1 372.7H295.6V372.3H298.1Q299 372.3 299.4 372Q299.8 371.7 299.8 371Q299.8 371 299.9 371Q300 371 300 371Q300 371.6 300 371.9Q300 372.2 300 372.5Q300 372.9 300 373.3Q300 373.6 300 374.1Q300 374.1 299.9 374.1Q299.8 374.1 299.8 374.1Z M312.3 378.1Q311.8 378.1 311.1 378Q310.3 378 309.7 378Q309.1 378 308.6 378Q308 378 307.6 378Q307.6 378 307.6 377.9Q307.6 377.8 307.6 377.8Q308.2 377.8 308.5 377.7Q308.8 377.6 308.9 377.4Q309 377.1 309 376.6V368.8Q309 368.3 308.9 368Q308.8 367.8 308.5 367.7Q308.2 367.6 307.6 367.6Q307.6 367.6 307.6 367.5Q307.6 367.4 307.6 367.4Q308.1 367.4 308.6 367.4Q309.1 367.4 309.7 367.4Q310.2 367.4 310.9 367.4Q311.6 367.3 312.1 367.3Q313.9 367.3 315.2 368Q316.5 368.7 317.3 369.9Q318 371 318 372.5Q318 373.8 317.6 374.8Q317.1 375.8 316.3 376.6Q315.5 377.3 314.5 377.7Q313.5 378.1 312.3 378.1ZM312.1 377.8Q313.4 377.8 314.4 377.2Q315.4 376.6 315.9 375.6Q316.5 374.5 316.5 372.9Q316.5 371.4 316 370.2Q315.4 369 314.5 368.3Q313.5 367.6 312.2 367.6Q311.2 367.6 310.8 367.8Q310.3 368 310.3 368.8V376.4Q310.3 377.1 310.7 377.4Q311 377.8 312.1 377.8Z M329.1 378.1Q328.6 378.1 327.9 378Q327.1 378 326.5 378Q325.9 378 325.4 378Q324.9 378 324.4 378Q324.4 378 324.4 377.9Q324.4 377.8 324.4 377.8Q325 377.8 325.3 377.7Q325.6 377.6 325.7 377.4Q325.8 377.1 325.8 376.6V368.8Q325.8 368.3 325.7 368Q325.6 367.8 325.3 367.7Q325 367.6 324.5 367.6Q324.4 367.6 324.4 367.5Q324.4 367.4 324.5 367.4Q324.9 367.4 325.4 367.4Q325.9 367.4 326.5 367.4Q327.1 367.4 327.8 367.4Q328.4 367.3 328.9 367.3Q330.7 367.3 332 368Q333.4 368.7 334.1 369.9Q334.9 371 334.9 372.5Q334.9 373.8 334.4 374.8Q334 375.8 333.2 376.6Q332.4 377.3 331.3 377.7Q330.3 378.1 329.1 378.1ZM329 377.8Q330.2 377.8 331.2 377.2Q332.2 376.6 332.8 375.6Q333.3 374.5 333.3 372.9Q333.3 371.4 332.8 370.2Q332.3 369 331.3 368.3Q330.4 367.6 329.1 367.6Q328 367.6 327.6 367.8Q327.2 368 327.2 368.8V376.4Q327.2 377.1 327.5 377.4Q327.9 377.8 329 377.8Z M344.2 376.6Q344.2 377.1 344.3 377.4Q344.4 377.6 344.7 377.7Q345 377.8 345.6 377.8Q345.6 377.8 345.6 377.9Q345.6 378 345.6 378Q345.2 378 344.7 378Q344.2 378 343.5 378Q342.9 378 342.4 378Q341.9 378 341.5 378Q341.4 378 341.4 377.9Q341.4 377.8 341.5 377.8Q342.1 377.8 342.4 377.7Q342.7 377.6 342.8 377.4Q342.9 377.1 342.9 376.6V368.8Q342.9 368.3 342.8 368Q342.7 367.8 342.4 367.7Q342.1 367.6 341.5 367.6Q341.4 367.6 341.4 367.5Q341.4 367.4 341.5 367.4Q341.9 367.4 342.4 367.4Q342.9 367.4 343.5 367.4Q344.2 367.4 344.7 367.4Q345.2 367.4 345.6 367.4Q345.6 367.4 345.6 367.5Q345.6 367.6 345.6 367.6Q345 367.6 344.7 367.7Q344.4 367.8 344.3 368Q344.2 368.3 344.2 368.8Z M353.5 376.1V367.8L353.9 367.8V376.1Q353.9 376.9 354.2 377.4Q354.6 377.8 355.3 377.8Q355.3 377.8 355.3 377.9Q355.3 378 355.3 378Q354.9 378 354.5 378Q354.2 378 353.7 378Q353.3 378 352.8 378Q352.4 378 352 378Q352 378 352 377.9Q352 377.8 352 377.8Q352.8 377.8 353.1 377.4Q353.5 376.9 353.5 376.1ZM362.1 378.2Q362.1 378.3 362 378.3Q361.9 378.3 361.9 378.3L353.9 368.8Q353.3 368.1 352.8 367.8Q352.4 367.6 352 367.6Q352 367.6 352 367.5Q352 367.4 352 367.4Q352.3 367.4 352.6 367.4Q353 367.4 353.2 367.4Q353.6 367.4 354 367.4Q354.3 367.4 354.5 367.4Q354.7 367.4 354.8 367.6Q354.9 367.8 355.3 368.3L361.9 376.2ZM362.1 369.3V378.2L361.6 377.7V369.3Q361.6 368.5 361.3 368Q361 367.6 360.3 367.6Q360.3 367.6 360.3 367.5Q360.3 367.4 360.3 367.4Q360.7 367.4 361 367.4Q361.4 367.4 361.9 367.4Q362.3 367.4 362.7 367.4Q363.1 367.4 363.5 367.4Q363.5 367.4 363.5 367.5Q363.5 367.6 363.5 367.6Q362.8 367.6 362.4 368Q362.1 368.5 362.1 369.3Z M375.8 378.2Q374.4 378.2 373.2 377.8Q372.1 377.3 371.3 376.6Q370.5 375.8 370.1 374.8Q369.6 373.8 369.6 372.7Q369.6 371.4 370.1 370.4Q370.6 369.4 371.5 368.7Q372.4 368 373.5 367.6Q374.7 367.2 376.1 367.2Q377 367.2 377.8 367.3Q378.6 367.5 379.1 367.8Q379.2 367.9 379.3 367.9Q379.3 367.9 379.3 368.2L379.5 370.3Q379.5 370.3 379.4 370.3Q379.3 370.4 379.3 370.3Q379.1 369.8 378.9 369.3Q378.6 368.8 378.1 368.4Q377.7 368 377.1 367.7Q376.5 367.5 375.7 367.5Q374.4 367.5 373.4 368.1Q372.4 368.7 371.8 369.8Q371.2 370.9 371.2 372.4Q371.2 373.5 371.5 374.5Q371.8 375.5 372.5 376.3Q373.1 377 374.1 377.5Q375 377.9 376.3 377.9Q377 377.9 377.5 377.8Q377.9 377.6 378.1 377.1Q378.3 376.7 378.3 375.9Q378.3 375.1 378.2 374.7Q378.1 374.3 377.7 374.2Q377.3 374 376.5 374Q376.4 374 376.4 373.9Q376.4 373.8 376.4 373.8Q377.6 373.8 378.5 373.9Q379.4 373.9 380.4 373.8Q380.4 373.8 380.5 373.9Q380.5 374 380.4 374Q380 374 379.8 374.2Q379.7 374.3 379.6 374.7Q379.6 375.1 379.6 376Q379.6 376.6 379.6 376.9Q379.6 377.1 379.7 377.3Q379.7 377.4 379.7 377.5Q379.7 377.6 379.7 377.7Q379.6 377.7 379.5 377.7Q378.6 377.9 377.7 378.1Q376.7 378.2 375.8 378.2Z M397.6 369.3Q397.6 370 398 370.5Q398.3 371 398.9 371.3Q399.4 371.7 400 372.1Q400.6 372.5 401.2 372.9Q401.8 373.3 402.2 373.9Q402.6 374.4 402.6 375.3Q402.6 376.1 402.1 376.8Q401.7 377.4 400.9 377.8Q400.1 378.2 399 378.2Q398.6 378.2 398.1 378.1Q397.7 378.1 397.3 377.9Q396.9 377.8 396.5 377.6Q396.4 377.5 396.4 377.5Q396.4 377.4 396.4 377.3L396.2 374.8Q396.2 374.7 396.3 374.7Q396.4 374.7 396.4 374.8Q396.5 375.3 396.8 375.9Q397 376.4 397.4 376.9Q397.8 377.3 398.3 377.6Q398.8 377.9 399.4 377.9Q399.9 377.9 400.3 377.7Q400.8 377.5 401 377.1Q401.3 376.7 401.3 376Q401.3 375.2 400.9 374.7Q400.6 374.1 400 373.7Q399.5 373.3 398.8 372.9Q398.2 372.5 397.7 372.1Q397.1 371.7 396.8 371.2Q396.4 370.6 396.4 369.9Q396.4 369 396.9 368.4Q397.4 367.8 398.2 367.5Q398.9 367.2 399.7 367.2Q400.3 367.2 400.8 367.3Q401.3 367.4 401.8 367.6Q401.9 367.6 402 367.7Q402 367.8 402 367.9L402.1 370Q402.1 370.1 402 370.1Q402 370.1 401.9 370Q401.9 369.7 401.7 369.3Q401.5 368.9 401.2 368.5Q401 368 400.5 367.8Q400.1 367.5 399.4 367.5Q398.8 367.5 398.4 367.7Q398 368 397.8 368.4Q397.6 368.8 397.6 369.3Z M411.9 367.7Q410.8 367.7 410.2 368.3Q409.6 368.9 409.3 370.2Q409.3 370.2 409.2 370.2Q409.1 370.2 409.1 370.2Q409.2 369.9 409.2 369.5Q409.3 369.1 409.3 368.7Q409.3 368.2 409.4 367.7Q409.4 367.3 409.4 367Q409.4 366.9 409.5 366.9Q409.6 366.9 409.6 367Q409.6 367.2 409.7 367.2Q409.9 367.3 410.1 367.3Q410.4 367.4 410.5 367.4Q412 367.4 413.9 367.4Q415.1 367.4 415.8 367.4Q416.5 367.4 417.2 367.4Q417.8 367.4 418.1 367.3Q418.4 367.2 418.5 366.9Q418.5 366.9 418.6 366.9Q418.7 366.9 418.7 366.9Q418.7 367.2 418.6 367.7Q418.6 368.1 418.6 368.6Q418.6 369.1 418.6 369.5Q418.5 370 418.5 370.2Q418.5 370.2 418.4 370.2Q418.3 370.2 418.3 370.2Q418.2 368.8 417.7 368.3Q417.1 367.7 416 367.7Q415.4 367.7 415.1 367.8Q414.8 367.9 414.7 368.1Q414.6 368.3 414.6 368.8V376.6Q414.6 377.1 414.7 377.4Q414.8 377.6 415.2 377.7Q415.5 377.8 416.2 377.8Q416.2 377.8 416.2 377.9Q416.2 378 416.2 378Q415.7 378 415.2 378Q414.6 378 413.9 378Q413.3 378 412.7 378Q412.1 378 411.7 378Q411.6 378 411.6 377.9Q411.6 377.8 411.7 377.8Q412.3 377.8 412.7 377.7Q413 377.6 413.1 377.4Q413.3 377.1 413.3 376.6V368.8Q413.3 368.3 413.2 368.1Q413.1 367.8 412.8 367.8Q412.5 367.7 411.9 367.7Z M434 369.3Q434 368.5 433.7 368Q433.3 367.6 432.5 367.6Q432.5 367.6 432.5 367.5Q432.5 367.4 432.5 367.4Q432.9 367.4 433.3 367.4Q433.8 367.4 434.3 367.4Q434.7 367.4 435.1 367.4Q435.5 367.4 435.9 367.4Q435.9 367.4 435.9 367.5Q435.9 367.6 435.9 367.6Q435.2 367.6 434.8 368Q434.5 368.5 434.5 369.3V374.1Q434.5 375.4 434 376.3Q433.5 377.3 432.6 377.7Q431.6 378.2 430.4 378.2Q429.2 378.2 428.2 377.7Q427.3 377.2 426.7 376.3Q426.2 375.4 426.2 374.2V368.8Q426.2 368.3 426.1 368Q426 367.8 425.7 367.7Q425.4 367.6 424.8 367.6Q424.8 367.6 424.8 367.5Q424.8 367.4 424.8 367.4Q425.2 367.4 425.8 367.4Q426.3 367.4 426.9 367.4Q427.5 367.4 428 367.4Q428.5 367.4 428.9 367.4Q429 367.4 429 367.5Q429 367.6 428.9 367.6Q428.3 367.6 428 367.7Q427.7 367.8 427.6 368Q427.5 368.3 427.5 368.8V373.6Q427.5 375.7 428.4 376.7Q429.3 377.7 430.9 377.7Q432.4 377.7 433.2 376.7Q434 375.8 434 374.2Z M446.5 378.1Q446 378.1 445.2 378Q444.5 378 443.9 378Q443.3 378 442.7 378Q442.2 378 441.8 378Q441.8 378 441.8 377.9Q441.8 377.8 441.8 377.8Q442.4 377.8 442.7 377.7Q443 377.6 443.1 377.4Q443.2 377.1 443.2 376.6V368.8Q443.2 368.3 443.1 368Q443 367.8 442.7 367.7Q442.4 367.6 441.8 367.6Q441.8 367.6 441.8 367.5Q441.8 367.4 441.8 367.4Q442.2 367.4 442.8 367.4Q443.3 367.4 443.9 367.4Q444.4 367.4 445.1 367.4Q445.8 367.3 446.3 367.3Q448 367.3 449.4 368Q450.7 368.7 451.5 369.9Q452.2 371 452.2 372.5Q452.2 373.8 451.8 374.8Q451.3 375.8 450.5 376.6Q449.7 377.3 448.7 377.7Q447.6 378.1 446.5 378.1ZM446.3 377.8Q447.6 377.8 448.6 377.2Q449.5 376.6 450.1 375.6Q450.7 374.5 450.7 372.9Q450.7 371.4 450.1 370.2Q449.6 369 448.7 368.3Q447.7 367.6 446.4 367.6Q445.4 367.6 445 367.8Q444.5 368 444.5 368.8V376.4Q444.5 377.1 444.9 377.4Q445.2 377.8 446.3 377.8Z M461.6 376.6Q461.6 377.1 461.7 377.4Q461.8 377.6 462.1 377.7Q462.4 377.8 463 377.8Q463 377.8 463 377.9Q463 378 463 378Q462.5 378 462 378Q461.5 378 460.9 378Q460.3 378 459.8 378Q459.2 378 458.8 378Q458.8 378 458.8 377.9Q458.8 377.8 458.8 377.8Q459.4 377.8 459.7 377.7Q460 377.6 460.1 377.4Q460.2 377.1 460.2 376.6V368.8Q460.2 368.3 460.1 368Q460 367.8 459.7 367.7Q459.4 367.6 458.8 367.6Q458.8 367.6 458.8 367.5Q458.8 367.4 458.8 367.4Q459.2 367.4 459.8 367.4Q460.3 367.4 460.9 367.4Q461.5 367.4 462 367.4Q462.6 367.4 463 367.4Q463 367.4 463 367.5Q463 367.6 463 367.6Q462.4 367.6 462.1 367.7Q461.8 367.8 461.7 368Q461.6 368.3 461.6 368.8Z M475 378.2Q473.7 378.2 472.7 377.8Q471.8 377.3 471 376.6Q470.3 375.8 470 374.8Q469.6 373.8 469.6 372.7Q469.6 371.3 470.1 370.3Q470.6 369.2 471.5 368.6Q472.4 367.9 473.5 367.5Q474.5 367.2 475.6 367.2Q476.8 367.2 477.8 367.6Q478.8 368.1 479.5 368.9Q480.2 369.6 480.6 370.6Q480.9 371.6 480.9 372.6Q480.9 373.8 480.5 374.8Q480 375.8 479.2 376.6Q478.3 377.3 477.3 377.8Q476.2 378.2 475 378.2ZM475.6 377.8Q476.6 377.8 477.5 377.3Q478.4 376.7 478.9 375.7Q479.4 374.6 479.4 373.1Q479.4 371.5 478.8 370.2Q478.3 369 477.3 368.3Q476.3 367.6 474.9 367.6Q473.1 367.6 472.1 368.8Q471.1 370 471.1 372.1Q471.1 373.3 471.4 374.4Q471.8 375.4 472.4 376.2Q472.9 377 473.8 377.4Q474.6 377.8 475.6 377.8Z"/>
</svg>
